<svg xmlns="http://www.w3.org/2000/svg" xmlns:xlink="http://www.w3.org/1999/xlink" width="30" height="30" viewBox="0 0 30 30">
  <defs>
    <clipPath id="clip-path">
      <rect id="Rectangle_522" data-name="Rectangle 522" width="30" height="30" transform="translate(36 609)" fill="#2faae8" stroke="#707070" stroke-width="1"/>
    </clipPath>
  </defs>
  <g id="Mask_Group_99" data-name="Mask Group 99" transform="translate(-36 -609)" clip-path="url(#clip-path)">
    <g id="four-arrows-interface-symbol-to-maximize-size" transform="translate(36 609)">
      <path id="Path_2155" data-name="Path 2155" d="M17.264,12.737a2,2,0,0,1,0-2.825l5.688-5.688L20.065,3.99A2,2,0,1,1,20.387.007L27.58.593a2,2,0,0,1,1.828,1.829l.586,7.19a2,2,0,1,1-3.98.324L25.779,7.05,20.09,12.738A2,2,0,0,1,17.264,12.737ZM9.911,17.263,4.225,22.95l-.236-2.887a2,2,0,0,0-3.982.324L.592,27.58a2,2,0,0,0,1.83,1.826l7.19.586a2,2,0,0,0,.325-3.98l-2.887-.236,5.686-5.687a2,2,0,1,0-2.825-2.826Zm18.251.971a2,2,0,0,0-2.152,1.829l-.236,2.887-5.686-5.687a2,2,0,0,0-2.824,2.825l5.686,5.687-2.888.234a2,2,0,1,0,.328,3.981l7.189-.587a2,2,0,0,0,1.829-1.827l.584-7.192A2,2,0,0,0,28.162,18.234ZM7.049,4.224,9.937,3.99A2,2,0,0,0,9.611.006L2.419.593A2,2,0,0,0,.592,2.422L.007,9.612a2,2,0,0,0,3.4,1.573,1.974,1.974,0,0,0,.578-1.25l.236-2.887,5.688,5.687a2,2,0,0,0,2.826-2.825Z" transform="translate(0 0)" fill="#2faae8"/>
    </g>
  </g>
</svg>
