<svg xmlns="http://www.w3.org/2000/svg" xmlns:xlink="http://www.w3.org/1999/xlink" width="30" height="30" viewBox="0 0 30 30">
  <defs>
    <clipPath id="clip-path">
      <rect id="Rectangle_518" data-name="Rectangle 518" width="30" height="30" transform="translate(36 491)" fill="#2faae8" stroke="#707070" stroke-width="1"/>
    </clipPath>
  </defs>
  <g id="Mask_Group_95" data-name="Mask Group 95" transform="translate(-36 -491)" clip-path="url(#clip-path)">
    <g id="Solid" transform="translate(36.517 491)">
      <path id="Path_2130" data-name="Path 2130" d="M1.379,5.69a4.66,4.66,0,0,0,4.655,4.655V9.31a3.621,3.621,0,1,1,0-7.241V1.034A4.66,4.66,0,0,0,1.379,5.69Z" transform="translate(-1.379 -1.034)" fill="#2faae8"/>
      <path id="Path_2131" data-name="Path 2131" d="M2.759,5A2.589,2.589,0,0,0,5.345,7.586V6.552a1.552,1.552,0,0,1,0-3.1V2.414A2.589,2.589,0,0,0,2.759,5Z" transform="translate(-0.69 -0.345)" fill="#2faae8"/>
      <path id="Path_2132" data-name="Path 2132" d="M10.345,14.728h3.219A12.716,12.716,0,0,0,11.03,9.854,22.545,22.545,0,0,1,10.345,14.728Z" transform="translate(3.103 3.375)" fill="#2faae8"/>
      <path id="Path_2133" data-name="Path 2133" d="M5.172,1.034H7.241v9.31H5.172Z" transform="translate(0.517 -1.034)" fill="#2faae8"/>
      <path id="Path_2134" data-name="Path 2134" d="M22.495,10.862l-3.1-9.828H17.079l3.46,10.945Z" transform="translate(6.471 -1.034)" fill="#2faae8"/>
      <path id="Path_2135" data-name="Path 2135" d="M24.576,12.621,20.914,1.034H7.241v9.328c2.148.17,10.277,1.847,9.828,17.569a3.1,3.1,0,0,0,3.1,3.1h3.433a3.081,3.081,0,0,0,3.064-2.758A24.752,24.752,0,0,0,24.294,14.82,2,2,0,0,1,24.576,12.621ZM10.345,6.207a1.034,1.034,0,1,1,1.034-1.034A1.034,1.034,0,0,1,10.345,6.207Zm8.276-2.069a1.034,1.034,0,1,1-1.034,1.034,1.034,1.034,0,0,1,1.034-1.034ZM13.448,5.172a1.034,1.034,0,1,1,1.034,1.034,1.034,1.034,0,0,1-1.034-1.034Zm.517,5.69V9.828h7.759v1.034ZM17.84,22.241c-.047-.357-.1-.7-.16-1.034h3.528a.517.517,0,0,1,0,1.034Zm3.884,5.172h-3.61c.005-.243.005-.481.005-.714v-.321h3.605a.517.517,0,1,1,0,1.034Zm0-2.586H18.072c-.016-.352-.036-.7-.067-1.034h3.719a.517.517,0,1,1,0,1.034Zm3.4,3.286L24.1,28.006a22.138,22.138,0,0,0-2.127-12.049L22.9,15.5a23.167,23.167,0,0,1,2.225,12.612Z" transform="translate(1.552 -1.034)" fill="#2faae8"/>
    </g>
  </g>
</svg>
