<svg xmlns="http://www.w3.org/2000/svg" xmlns:xlink="http://www.w3.org/1999/xlink" width="35" height="35" viewBox="0 0 35 35">
  <defs>
    <clipPath id="clip-path">
      <rect id="Rectangle_520" data-name="Rectangle 520" width="35" height="35" transform="translate(36 551)" fill="#2faae8" stroke="#707070" stroke-width="1"/>
    </clipPath>
  </defs>
  <g id="Mask_Group_97" data-name="Mask Group 97" transform="translate(-36 -551)" clip-path="url(#clip-path)">
    <g id="Solid" transform="translate(36 551)">
      <path id="Path_2144" data-name="Path 2144" d="M16.9,3.793H19.31V7.414H16.9Z" transform="translate(10.862 1.034)" fill="#2faae8"/>
      <path id="Path_2145" data-name="Path 2145" d="M15.862,6.552H21.9V8.966H15.862Z" transform="translate(10.086 3.103)" fill="#2faae8"/>
      <path id="Path_2146" data-name="Path 2146" d="M14.138,18.966H26.207v3.621H14.138Z" transform="translate(8.793 12.414)" fill="#2faae8"/>
      <path id="Path_2147" data-name="Path 2147" d="M14.138,8.621H26.207v3.621H14.138Z" transform="translate(8.793 4.655)" fill="#2faae8"/>
      <path id="Path_2148" data-name="Path 2148" d="M14.138,23.448H26.207V11.379H14.138Zm2.414-7.241h2.414V13.793h2.414v2.414h2.414v2.414H21.379v2.414H18.966V18.621H16.552Z" transform="translate(8.793 6.724)" fill="#2faae8"/>
      <path id="Path_2149" data-name="Path 2149" d="M8.621,12.759a2.414,2.414,0,0,0,2.414-2.414c0-1.333-2.414-4.023-2.414-4.023s-2.414,2.69-2.414,4.023A2.414,2.414,0,0,0,8.621,12.759Z" transform="translate(2.845 2.931)" fill="#2faae8"/>
      <path id="Path_2150" data-name="Path 2150" d="M7.845,8.362a.6.6,0,0,0,.6-.6V4.741a1.81,1.81,0,0,1,1.81-1.81H21.121V1.724H10.259A3.021,3.021,0,0,0,7.241,4.741V7.759A.6.6,0,0,0,7.845,8.362Z" transform="translate(3.621 -0.517)" fill="#2faae8"/>
      <path id="Path_2151" data-name="Path 2151" d="M21.9,2.241A1.207,1.207,0,0,0,20.69,1.034H17.069a1.207,1.207,0,0,0-1.207,1.207V4.655H21.9Z" transform="translate(10.086 -1.034)" fill="#2faae8"/>
      <path id="Path_2152" data-name="Path 2152" d="M22.7,13.442a1.645,1.645,0,0,0-1.95-.987l-3.44.912a.87.87,0,0,0-.039-.176,2,2,0,0,0-2.41-1.3l-3.832,1.022a1.738,1.738,0,0,1-1.56-.344L7.374,10.825a5.213,5.213,0,0,0-5.347-.806l-.993.415.022,6.135H3.048a3.45,3.45,0,0,1,1.154.2l5.231,1.726a4.284,4.284,0,0,0,3.011-.053l9.768-3.868a.873.873,0,0,0,.483-1.13Zm-5.98,1.445-5.359,1.792a4.345,4.345,0,0,1-3.2-.181L4.076,14.56l1.346.042,2.74,1.3a4.345,4.345,0,0,0,3.2.175l5.359-1.786a5.015,5.015,0,0,0,.585-.326.851.851,0,0,1-.585.923Z" transform="translate(-1.034 5.402)" fill="#2faae8"/>
    </g>
  </g>
</svg>
