<svg xmlns="http://www.w3.org/2000/svg" xmlns:xlink="http://www.w3.org/1999/xlink" width="30" height="30" viewBox="0 0 30 30">
  <defs>
    <clipPath id="clip-path">
      <rect id="Rectangle_523" data-name="Rectangle 523" width="30" height="30" transform="translate(36 639)" fill="#2faae8" stroke="#707070" stroke-width="1"/>
    </clipPath>
  </defs>
  <g id="Mask_Group_100" data-name="Mask Group 100" transform="translate(-36 -639)" clip-path="url(#clip-path)">
    <g id="table" transform="translate(36 643.564)">
      <g id="Group_666" data-name="Group 666" transform="translate(0)">
        <path id="Path_2156" data-name="Path 2156" d="M29.993,8.22a.652.652,0,0,0-.181-.416v0L25.246,3.235a.652.652,0,0,0-.463-.192H5.14a.652.652,0,0,0-.465.2L.185,7.8a.647.647,0,0,0-.122.184c-.009.02-.014.04-.021.06a.644.644,0,0,0-.035.173c0,.014-.008.025-.008.04v1.957c0,.009,0,.017.005.025a.641.641,0,0,0,.046.226s.005.008.007.013a.642.642,0,0,0,.119.177.625.625,0,0,0,.049.044.642.642,0,0,0,.137.093.608.608,0,0,0,.061.029.644.644,0,0,0,.226.046H2.607V23.262a.652.652,0,0,0,.652.652h.652a.652.652,0,0,0,.652-.652V10.87H6.521v7.175a.652.652,0,0,0,.652.652h.652a.652.652,0,0,0,.652-.652V10.87H21.522v7.175a.652.652,0,0,0,.652.652h.652a.652.652,0,0,0,.652-.652V10.87h1.957V23.262a.652.652,0,0,0,.652.652h.652a.652.652,0,0,0,.652-.652V10.87h1.957a.644.644,0,0,0,.228-.046.61.61,0,0,0,.062-.029.642.642,0,0,0,.136-.092.634.634,0,0,0,.049-.044.642.642,0,0,0,.117-.173c0-.006.007-.01.009-.016A.642.642,0,0,0,30,10.242c0-.009,0-.015,0-.023V8.261A.331.331,0,0,0,29.993,8.22Z" transform="translate(0 -3.043)" fill="#2faae8"/>
      </g>
    </g>
  </g>
</svg>
