<svg xmlns="http://www.w3.org/2000/svg" width="30" height="30" viewBox="0 0 30 30">
  <g id="facemask-virus-covid19-corona-mask" transform="translate(-1.147 -1.147)">
    <path id="Path_2041" data-name="Path 2041" d="M30,3.032l-.739-.739a3.924,3.924,0,0,0-5.543,0L20.4,5.617,18.975,4.2a.523.523,0,0,0-.366-.152.511.511,0,0,0-.3.089L13.906,7.128A25.647,25.647,0,0,0,7.129,13.9l-2.994,4.4a.522.522,0,0,0,.063.664L5.62,20.395,2.293,23.722a3.923,3.923,0,0,0,0,5.542L3.03,30a3.924,3.924,0,0,0,5.543,0L11.9,26.676l1.423,1.419a.523.523,0,0,0,.664.063l4.405-2.994a25.647,25.647,0,0,0,6.778-6.776l2.994-4.4a.522.522,0,0,0-.063-.664L26.677,11.9,30,8.57a3.924,3.924,0,0,0,0-5.538ZM20.213,9.126a.522.522,0,1,1,.739.739L9.866,20.948a.522.522,0,1,1-.739-.739ZM6.91,17.993,18,6.91a.522.522,0,1,1,.739.739L7.649,18.732a.522.522,0,1,1-.739-.739Zm.922,11.27a2.881,2.881,0,0,1-4.062,0l-.742-.741a2.873,2.873,0,0,1,0-4.061l3.329-3.328,2.4,2.4,2.216,2.215v.005l.183.183Zm4.251-6.1a.522.522,0,1,1-.739-.739L22.43,11.343a.522.522,0,1,1,.739.739Zm13.3-8.867L14.3,25.382a.522.522,0,1,1-.739-.739L24.647,13.56a.522.522,0,1,1,.739.739Zm.553-3.139L21.321,6.543V6.538l-.183-.183,3.326-3.326a2.881,2.881,0,0,1,4.062,0l.742.741a2.873,2.873,0,0,1,0,4.061Z" transform="translate(0 0)" fill="#2faae8"/>
  </g>
</svg>
